<svg viewBox="0 0 320 252" fill="none" xmlns="http://www.w3.org/2000/svg">
    <path d="M101.4 251.8C81.9334 251.8 64.6001 247.4 49.4001 238.6C34.2001 229.533 22.2001 217.133 13.4001 201.4C4.86677 185.667 0.600098 167.4 0.600098 146.6C0.600098 125.533 4.86677 107.133 13.4001 91.4C22.2001 75.4 34.2001 63 49.4001 54.2C64.6001 45.1333 81.9334 40.6 101.4 40.6C125.933 40.6 146.467 47 163 59.8C179.533 72.6 190.067 89.9333 194.6 111.8H153C150.333 100.067 144.2 91 134.6 84.6C125.267 78.2 114.067 75 101 75C90.3334 75 80.4668 77.8 71.4001 83.4C62.3334 88.7333 55.0001 96.7333 49.4001 107.4C44.0668 117.8 41.4001 130.733 41.4001 146.2C41.4001 157.667 43.0001 167.933 46.2001 177C49.4001 185.8 53.6668 193.267 59.0001 199.4C64.6001 205.533 71.0001 210.2 78.2001 213.4C85.4001 216.333 93.0001 217.8 101 217.8C109.8 217.8 117.667 216.467 124.6 213.8C131.8 210.867 137.8 206.6 142.6 201C147.667 195.4 151.133 188.733 153 181H194.6C190.067 202.333 179.533 219.533 163 232.6C146.467 245.4 125.933 251.8 101.4 251.8Z" fill="white"/>
    <path d="M284.4 252C271.6 252 260.534 250 251.2 246C241.867 242 234.667 235.333 229.6 226C224.534 216.667 222 204 222 188V84.4H187.2V50.4H222L226.8 0H262V50.4H319.2V84.4H262V188.4C262 199.867 264.4 207.733 269.2 212C274 216 282.267 218 294 218H317.2V252H284.4Z" fill="white"/>
</svg>
